<?xml version="1.0" encoding="UTF-8"?>
<svg xmlns="http://www.w3.org/2000/svg" version="1.1" viewBox="0 0 127 43">
  <!-- Generator: Adobe Illustrator 28.7.1, SVG Export Plug-In . SVG Version: 1.2.0 Build 142)  -->
  <g>
    <g id="Layer_1">
      <g>
        <path d="M4.7,9h4.3l4.7,25.2h-3.8l-.7-4.5h-4.7l-.7,4.5H0L4.7,9ZM8.7,26.8l-1.8-12.6h-.2l-1.8,12.6h3.8Z"/>
        <path d="M17.4,34.4c-.7,0-1.2-.2-1.7-.7-.4-.5-.6-1.2-.6-2.1s.2-1.8.6-2.2,1-.7,1.7-.7,1.3.2,1.7.7c.4.5.6,1.2.6,2.2s-.2,1.6-.6,2.1c-.4.5-1,.8-1.7.8Z"/>
        <path d="M28.7,9h3.8c.6,0,1.2,0,1.9.1.7,0,1.4.2,2.1.5.7.3,1.3.7,1.9,1.2.6.6,1,1.3,1.4,2.3s.5,2.2.5,3.7v.9c0,1.6-.2,3-.5,4-.3,1.1-.7,1.9-1.3,2.6-.5.6-1.1,1.1-1.8,1.4-.7.3-1.3.5-2,.6-.7.1-1.3.2-1.9.2h-.4v7.7h-3.8V9ZM32.7,23.7c1.4,0,2.3-.4,2.9-1.2.5-.8.8-2.2.8-4.1v-2.3c0-1.5-.2-2.6-.7-3.3-.5-.7-1.5-1.1-2.9-1.1h-.2v11.9h.2Z"/>
        <path d="M42.3,25.8v-3.8c0-1.6.1-2.8.4-3.9s.6-1.8,1.1-2.4c.4-.6.9-1.1,1.4-1.4.5-.3,1-.5,1.6-.6.5,0,1-.1,1.4-.1.9,0,1.7.2,2.5.6.8.4,1.4,1,1.8,1.9.5.9.7,2.2.7,3.8s0,1.6-.1,2.5c0,.8-.2,1.6-.4,2.2h-6.6v2.1c0,1.8.1,3,.4,3.7.3.7.9,1.1,1.7,1.1s.9-.2,1.3-.6c.4-.4.6-1.1.6-2.2v-.9h3.1v.9c0,1.9-.5,3.3-1.4,4.2-.9.9-2.2,1.3-4,1.3s-3.1-.7-4-2c-.9-1.3-1.4-3.5-1.4-6.5ZM49.7,22.2c0-.2,0-.5,0-1,0-.4,0-.8,0-1.1,0-1.3-.1-2.3-.4-2.9-.3-.6-.7-.9-1.4-.9-.7,0-1.1.3-1.5,1-.3.7-.5,1.9-.5,3.6v1.2h3.7Z"/>
        <path d="M56.5,16.7h-1.7v-2.8h2l.8-5.3h2.7v5.3h3.4v2.8h-3.4v12.4c0,.9.2,1.4.5,1.7.3.2.7.4,1.1.4.7,0,1.3-.2,1.8-.5v2.4c-.4.5-.9.9-1.5,1.1-.6.2-1.1.3-1.6.3s-1.3-.1-2-.4c-.6-.3-1.1-.8-1.5-1.5-.4-.8-.6-1.9-.6-3.3v-12.4Z"/>
        <path d="M65,25.8v-3.8c0-1.6.1-2.8.4-3.9s.6-1.8,1.1-2.4c.4-.6.9-1.1,1.4-1.4.5-.3,1-.5,1.6-.6.5,0,1-.1,1.4-.1.9,0,1.7.2,2.5.6.8.4,1.4,1,1.8,1.9.5.9.7,2.2.7,3.8s0,1.6-.1,2.5c0,.8-.2,1.6-.4,2.2h-6.6v2.1c0,1.8.1,3,.4,3.7.3.7.9,1.1,1.7,1.1s.9-.2,1.3-.6c.4-.4.6-1.1.6-2.2v-.9h3.1v.9c0,1.9-.5,3.3-1.4,4.2-.9.9-2.2,1.3-4,1.3s-3.1-.7-4-2c-.9-1.3-1.4-3.5-1.4-6.5ZM72.4,22.2c0-.2,0-.5,0-1,0-.4,0-.8,0-1.1,0-1.3-.1-2.3-.4-2.9-.3-.6-.7-.9-1.4-.9-.7,0-1.1.3-1.5,1-.3.7-.5,1.9-.5,3.6v1.2h3.7Z"/>
        <path d="M79,13.9h2.7l.3,2.1c.4-.8.9-1.3,1.4-1.7s1.1-.6,1.7-.6c2.1,0,3.1,1.3,3.1,3.9s0,.8-.1,1.3c0,.5-.2,1-.4,1.4h-2.6v-1.6c0-.8-.1-1.4-.4-1.7-.2-.3-.6-.4-.9-.4s-.8.4-1.1,1.1v16.4h-3.7V13.9Z"/>
        <path d="M89.6,29.9c0-.4,0-.9.1-1.3,0-.4.2-.7.2-1h2.6c0,1.5.2,2.5.6,3.1.4.6.9.9,1.6.9s.9-.1,1.1-.4c.3-.3.4-.7.4-1.1s-.1-.8-.3-1.3c-.2-.4-.5-.8-1-1.3l-2.6-3.2c-.7-.9-1.3-1.8-1.9-2.8-.6-1-.8-2.1-.8-3.2s.2-1.9.7-2.6c.5-.7,1.1-1.2,1.8-1.5s1.6-.5,2.5-.5c1.5,0,2.6.4,3.5,1.1.9.7,1.3,1.8,1.3,3.2s0,.9-.1,1.4c0,.4-.2.8-.2,1.1h-2.6c0-1.3-.2-2.3-.5-3s-.8-1-1.5-1-1,.2-1.2.5-.3.7-.3,1.2.1.9.4,1.3c.2.4.5.8.9,1.3l2.9,3.6c.3.4.6.8,1,1.3.4.5.7,1.2,1,1.8.3.7.4,1.4.4,2.2,0,1.4-.4,2.6-1.3,3.4-.9.9-2.2,1.3-3.8,1.3s-1.7-.1-2.5-.4c-.7-.3-1.3-.7-1.8-1.4-.4-.7-.7-1.5-.7-2.6Z"/>
        <path d="M101.9,25.8v-3.8c0-1.6.1-2.8.4-3.9s.6-1.8,1.1-2.4c.4-.6.9-1.1,1.4-1.4.5-.3,1-.5,1.6-.6.5,0,1-.1,1.4-.1.9,0,1.7.2,2.5.6.8.4,1.4,1,1.8,1.9.5.9.7,2.2.7,3.8s0,1.6-.1,2.5c0,.8-.2,1.6-.4,2.2h-6.6v2.1c0,1.8.1,3,.4,3.7.3.7.9,1.1,1.7,1.1s.9-.2,1.3-.6c.4-.4.6-1.1.6-2.2v-.9h3.1v.9c0,1.9-.5,3.3-1.4,4.2-.9.9-2.2,1.3-4,1.3s-3.1-.7-4-2c-.9-1.3-1.4-3.5-1.4-6.5ZM109.3,22.2c0-.2,0-.5,0-1,0-.4,0-.8,0-1.1,0-1.3-.1-2.3-.4-2.9-.3-.6-.7-.9-1.4-.9-.7,0-1.1.3-1.5,1-.3.7-.5,1.9-.5,3.6v1.2h3.7Z"/>
        <path d="M115.9,13.9h2.8l.4,2.2h0c.6-.9,1.2-1.6,2-1.9.7-.3,1.5-.5,2.2-.5,1.2,0,2.1.4,2.7,1.3s1,2.1,1,3.7v15.5h-3.7v-15.1c0-.9-.1-1.5-.4-1.9-.3-.3-.7-.5-1.2-.5s-.7.1-1.1.4-.7.6-1,1v16.1h-3.7V13.9Z"/>
      </g>
    </g>
  </g>
</svg>