<?xml version="1.0" encoding="UTF-8"?>
<svg xmlns="http://www.w3.org/2000/svg" xmlns:v="https://vecta.io/nano" version="1.1" viewBox="0 0 154 36">
  <defs>
    <style>
      .cls-1 {
        fill: #b4b7c9;
      }
    </style>
  </defs>
  <!-- Generator: Adobe Illustrator 28.7.1, SVG Export Plug-In . SVG Version: 1.2.0 Build 142)  -->
  <g>
    <g id="Layer_1">
      <g id="barclays-3">
        <path id="Shape" class="cls-1" d="M46.9,25.2h-5.2c.7-.6.9-2.8,1.1-6.8v-.9c.2-2.2.3-4,.3-5.2s-.1-1.7-.4-1.9h5.8c1.4,0,4.2,0,4.2,2.9s-1.8,3.1-3.4,3.5c2.3.2,4,1.3,4,3.7,0,2.6-2.4,4.6-6.4,4.6M46.7,18.1h-1l-.2,2.2c0,1-.1,1.8-.1,2.7s.4.4,1.4.4c2.1,0,3.4-1,3.4-2.7,0-1.9-1.6-2.6-3.5-2.6M47.1,12.2c-.3,0-.7,0-1,0-.2,1-.2,2-.3,3.2,0,0,0,.9,0,.9h.4c1.9,0,3.6-.7,3.6-2.4,0-1-.8-1.7-2.6-1.7M65.5,25.4c-1.3,0-1.4,0-2.4-3.5l-.4-1.3c-.6.3-1.7.4-3.4.4h-1.8l-.3.7c-.3.7-1,2.1-1,2.9s0,.4,0,.7h-3.5c1-1,2.3-3.3,4.1-7.1l1-2.2c.9-2,2-4.3,2-4.6s0-.5-.2-.9h3.2s.9,3.2,1.6,5.8l.6,2.3c1.1,4,1.8,5.8,2.7,6.6-.9,0-1.9.1-2.3.1M60.8,13.9l-2.4,5.2h3.9l-1.5-5.2M79.5,25.8c-1.1,0-1.3-.2-1.7-.7l-4.2-5.7c-.3-.5-.6-.8-1.1-.8h0v1.2c-.1,1.5-.2,2.7-.2,3.6s.1,1.6.4,1.8h-4c.6-.5.8-2.2,1.2-6.8v-.9c.2-2.2.3-4,.3-5.2s-.1-1.7-.4-1.9h5.4c1.8,0,4.2.3,4.2,3.2s-1.6,3.6-3.5,4.3c.2.2.5.6.7.9l3,4c1.9,2.5,2,2.6,2.7,2.9-.8.1-1.9.2-2.6.2M74.1,12.3c-.4,0-.8,0-1.2,0-.1.6-.2,1.7-.3,3.5v1c.1,0,.4,0,.6,0,1.8,0,3.1-1.2,3.1-2.8,0-1.2-.9-1.8-2.3-1.8M87.4,25.5c-3.8,0-6-3.2-6-6.6s2.7-8.7,7.8-8.7,2.3.3,3.7.3l-.4,3.8c-.7-1.3-2-2.2-3.5-2.2-3.2,0-4.5,3.4-4.5,6.3s1.8,4.9,4.2,4.9,2.4-.3,4.3-1.6c-.8,2.3-2.6,3.8-5.5,3.8M113.5,25.4c-1.3,0-1.3,0-2.4-3.5l-.4-1.3c-.6.3-1.7.4-3.4.4h-1.8l-.3.7c-.5,1-1,2.1-1,2.9s0,.4,0,.7h-10.5c.6-.7.8-2.9,1.1-6.8v-.9c.2-2.3.3-4,.3-5.2s-.1-1.6-.4-1.9h4.1c-.6.4-.8,2.8-1,6.8v.9c-.1,1.5-.4,3-.4,4.4s.2.9,1,.9c2.5,0,3.1,0,4.2-.8.7-1.3,1.5-2.9,2.3-4.5l1-2.2c1-2.1,2-4.2,2-4.6s0-.5-.2-.9h3.2s1.3,4.8,1.6,5.8l.6,2.3c1.1,4,1.8,5.8,2.7,6.6-.9.1-2,.2-2.4.2M108.9,13.9l-2.4,5.2h3.8l-1.5-5.2M122.8,17.3c-.3.6-.8,1.3-1,1.9-.2,1.1-.3,2.6-.3,4.1s.1,1.6.4,1.9h-4c.7-.7,1-4.7,1-6.1-.5-1.8-1.3-3.6-2.4-5.8-.7-1.3-1.5-2.6-2.1-2.9.9,0,2.1-.1,2.6-.1,1,0,1.3.1,1.9,1.5,1,2.2,1.6,3.8,2.1,5,1-1.6,1.7-2.7,2.6-4.2.2-.4.4-.9.4-1.3s0-.7-.2-.9h4c-.9.2-4.3,5.6-5,6.8M136.3,13.9c-.6-1.1-2-1.9-3.4-1.9s-2.4.5-2.4,1.8,1.4,1.9,2.9,2.9c1.6,1,3.2,2.2,3.2,4.3s-2.7,4.5-5.9,4.5-2.6-.2-4.2-.8l.2-3.6c.7,1.5,2.1,2.6,4.1,2.6s2.7-.7,2.7-2.1-.9-1.8-2.1-2.5c-2.4-1.5-4-2.6-4-4.7,0-3.2,2.6-4.2,5.4-4.2s2.6.3,3.6.3l-.4,3.5Z"/>
        <path id="Path" class="cls-1" d="M35.6,12.2c-.2-.4-.5-.9-1.1-1.3-.2-.2-.6-.4-.9-.5-.2,0-.5-.1-.8-.1h0c-.4,0-1,0-1.4.6-.2.2-.2.6-.2.9,0,.2.2.5.5.6,0,0,0,0,.2,0,0,0,0,.2,0,.2-.2.2-.5.5-1.4.5h0c-.5,0-.9-.2-1.4-.7-.3-.4-.5-1-.5-2.1s0-1-.2-1.4c0-.2-.3-.5-.5-.6-.2-.1-.3-.2-.6-.3-.4,0-.7-.1-1.1-.1s-.6,0-.7.2h-.4c-.2,0-.4,0-.6,0-.4,0-.6.2-.9.4,0,0-.3.3-.4.6,0,.2,0,.4,0,.4h0c.1,0,.4-.1.7-.1s1,.2,1.2.5c.3.5.2.9.2,1.3-.2,1.2-.6,1.7-1.5,1.8-.2,0-.4,0-.5,0-.7,0-1.2-.2-1.4-.6h0c0-.1,0-.1.1-.2.2-.1.4-.3.5-.6,0-.3,0-.6-.2-.9-.4-.4-.9-.6-1.4-.6s-.6,0-.9.1c-.7.2-1.4.8-1.9,1.8-.4.7-.6,1.6-.7,2.6,0,1,0,1.8,0,2.5,0,1.2.3,2,.6,2.8.3.8.7,1.5,1.1,2.2.1.2.2.4.3.5h0c0-.1.1-.2.2-.3.2-.2.7-.8.8-1,.1-.2.3-.5.4-.8h0c0-.1.1,0,.1,0,.1.1.2.3.2.5s0,.4-.2.7c-.1.4-.4.9-.6,1.4,0,0,0,.2,0,.2-.2.3-.2.4-.2.6h0c0,0,.3,0,.5-.2.2-.1.7-.6,1.3-1.4.5-.6.8-1.3,1.2-2h0c0-.1.1,0,.1,0,0,0,.1,0,.2.1,0,.1,0,.3,0,.5,0,.5-.4,1.2-.6,1.7-.4.9-1,1.8-1.5,2.5,0,0-.1.2-.2.2,0,0,.1.1.2.2l.2.2c.7.6,1.3,1,2.1,1.4.6.4,1.9,1,2.7,1.2.9-.2,2.1-.9,2.7-1.2.8-.4,1.4-.9,2.1-1.4l.2-.2c.1,0,.2-.2.2-.2,0-.1,0-.2,0-.2h0c-.5-.7-1.2-1.7-1.5-2.5-.2-.5-.5-1.2-.6-1.7,0-.2,0-.4,0-.5h.1c0-.2.2-.2.2-.2h0c.4.9.7,1.5,1.2,2.2.6.9,1.1,1.3,1.3,1.4.2.2.4.2.5.2h0c0,0,0-.2-.2-.5,0,0,0-.1,0-.2-.2-.5-.5-1-.6-1.4-.1-.4-.2-.6-.2-.7,0-.2,0-.4.2-.5h.1c0,0,0,0,0,0,.1.3.4.7.5.9.1.2.6.7.7.9.1.1.2.2.2.2h0c0,0,.1-.1.2-.4h0c.4-.7.7-1.5,1.1-2.3.3-.7.5-1.5.6-2.8,0-.7.1-1.5,0-2.5,0-.9-.2-1.8-.5-2.5h0Z"/>
      </g>
    </g>
  </g>
</svg>