<?xml version="1.0" encoding="UTF-8"?>
<svg xmlns="http://www.w3.org/2000/svg" version="1.1" viewBox="0 0 194 49">
  <defs>
    <style>
      .cls-1 {
        fill: none;
        stroke: #b4b7c9;
        stroke-miterlimit: 3.9;
        stroke-width: 1.6px;
      }

      .cls-2, .cls-3 {
        fill: #b4b7c9;
      }

      .cls-3 {
        fill-rule: evenodd;
      }
    </style>
  </defs>
  <!-- Generator: Adobe Illustrator 28.7.1, SVG Export Plug-In . SVG Version: 1.2.0 Build 142)  -->
  <g>
    <g id="Layer_1">
      <path class="cls-2" d="M-164.3-154.6v2.8c0,0-.2,0-.3,0-.1,0-.2,0-.3,0h-.7c-.3,0-.6,0-1,0-.3,0-.6,0-1,.1-.5,0-1,.1-1.4.3-.5.2-.9.3-1.4.6-.4.2-.7.4-1,.6-.3.2-.6.5-.9.8-.3.3-.5.6-.8.9-.2.3-.4.7-.6,1.1-.2.4-.3.8-.4,1.2-.1.4-.2.8-.2,1.3,0,.2,0,.4,0,.7,0,.2,0,.5,0,.7s0,.4,0,.6c0,.2,0,.4,0,.7,0,.4.2.9.4,1.3.2.4.4.8.6,1.2.5.6,1,1.2,1.6,1.8.6.5,1.2,1,1.9,1.3.6.2,1.3.4,1.9.5.7.1,1.3.2,2,.2s.6,0,.9,0c.3,0,.6,0,.9,0v2.7h-4.1c-.5,0-1-.2-1.6-.3-.5-.1-1-.3-1.5-.6-.4-.2-.8-.4-1.2-.7-.4-.3-.8-.6-1.1-.9-.4-.3-.7-.6-1-1-.3-.4-.6-.7-.8-1.1-.3-.5-.6-1.1-.8-1.7-.2-.6-.4-1.2-.6-1.8,0-.6,0-1.3-.1-1.9,0-.6,0-1.3,0-1.9,0-.6.2-1.1.4-1.6.2-.5.4-1,.6-1.5.3-.5.6-1,.9-1.4.3-.5.7-.9,1-1.3.3-.4.6-.7,1-.9.4-.3.8-.5,1.1-.7.6-.3,1.2-.6,1.8-.8.6-.2,1.3-.4,1.9-.5.4,0,.8-.1,1.3-.2.4,0,.8,0,1.3,0s.5,0,.7,0c.2,0,.5,0,.7,0h0Z"/>
      <path class="cls-2" d="M-154.8-148.2c.3,0,.7,0,1,0,.3,0,.7.2,1,.3.5.2,1,.4,1.4.7.4.3.9.6,1.2,1,.4.4.7.8,1,1.3.3.5.5,1,.7,1.5.2.5.3,1.1.3,1.6,0,.6,0,1.1,0,1.7,0,.5-.1,1.1-.3,1.6-.2.5-.4,1-.7,1.5-.3.5-.6.9-1,1.3-.4.4-.8.8-1.3,1.1-.4.3-.9.5-1.4.7-.5.2-1,.3-1.5.3,0,0-.2,0-.3,0,0,0-.2,0-.3,0,0,0-.2,0-.3,0h-.3c-.3,0-.7,0-1,0-.3,0-.7-.1-1-.2-.5-.2-1-.4-1.4-.7-.5-.3-.9-.6-1.3-.9-.4-.4-.7-.8-1-1.3-.3-.5-.6-1-.8-1.5-.1-.4-.2-.8-.3-1.2,0-.4-.1-.8-.1-1.3v-.4s0,0,0-.2c0,0,0-.1,0-.2,0-.6.1-1.1.3-1.6.2-.5.4-1,.6-1.5.3-.5.6-.9.9-1.3.3-.4.7-.8,1.2-1.1.5-.3.9-.6,1.4-.8.5-.2,1-.3,1.5-.4.3,0,.5,0,.8,0,.3,0,.5,0,.8,0h0ZM-154.4-145.7c0,0-.2,0-.2,0,0,0-.1,0-.2,0,0,0-.2,0-.2,0h-.2c0,0-.2,0-.3,0,0,0-.2,0-.3,0,0,0-.2,0-.3,0,0,0-.2,0-.3,0-.4.1-.8.3-1.1.5-.3.2-.6.5-.9.8-.2.3-.4.5-.6.8-.2.3-.3.6-.4,1,0,.4-.1.7-.2,1.1,0,.4,0,.7,0,1.1,0,.4,0,.7.2,1.1,0,.4.2.7.4,1,.2.3.4.6.6.9.2.3.5.5.8.7.3.2.6.4.9.5.3.1.7.2,1,.3.1,0,.2,0,.4,0,.1,0,.2,0,.3,0,.2,0,.5,0,.7,0,.2,0,.5-.1.7-.2.3-.1.7-.2.9-.4.3-.2.6-.4.8-.7.3-.2.5-.5.7-.8.2-.3.4-.6.5-1,0-.2.2-.5.2-.7,0-.2,0-.5,0-.8v-.3c0-.1,0-.2,0-.3,0-.4,0-.7,0-1.1,0-.4-.2-.7-.4-1-.2-.4-.4-.7-.6-.9-.2-.3-.5-.5-.8-.7-.3-.2-.6-.4-.9-.5-.3-.1-.7-.2-1-.3h0Z"/>
      <path class="cls-2" d="M-141.3-148.2c.2,0,.3,0,.5,0h.5c.2,0,.3,0,.5,0,.2,0,.3,0,.4,0,.6.1,1.2.3,1.7.7.5.3,1,.7,1.4,1.2.4-.5,1-1,1.6-1.3.6-.3,1.2-.5,1.9-.6.4,0,.7,0,1.1,0,.3,0,.7,0,1,.2.3,0,.5.2.8.3.2.1.5.3.7.4.2.2.4.3.6.5.2.2.4.4.5.6.2.3.4.7.5,1,.1.4.2.7.3,1.1v10.2h-2.5v-9.1c0-.3,0-.5-.1-.8,0-.3-.1-.5-.2-.8-.2-.4-.5-.7-.8-.9-.3-.2-.7-.4-1.1-.5,0,0-.2,0-.2,0,0,0-.2,0-.3,0-.3,0-.6,0-.9.2-.3.1-.6.3-.8.5-.3.2-.5.5-.6.9-.2.4-.2.7-.2,1.1v9.5h-2.5v-9.4c0-.4-.1-.9-.3-1.3-.2-.4-.4-.8-.7-1-.1-.1-.3-.2-.5-.3s-.4-.1-.5-.2c0,0-.1,0-.2,0,0,0,0,0-.1,0,0,0,0,0-.1,0h-.2c-.1,0-.2,0-.3,0-.1,0-.2,0-.3,0-.4.1-.8.3-1.1.6-.3.3-.6.7-.7,1.1,0,.2-.1.4-.1.6,0,.2,0,.4,0,.6h0c0,.1,0,.2,0,.2h0v9h-2.5v-9.7c0-.3,0-.5,0-.8,0-.3.1-.5.2-.8.2-.5.5-1,.9-1.4.4-.4.8-.8,1.2-1.1.3-.2.6-.3.9-.4.3-.1.6-.2.9-.2h0Z"/>
      <path class="cls-2" d="M-117.1-148.2c0,0,.2,0,.3,0h.3c.5,0,1,.1,1.5.2.5.1.9.4,1.4.6.3.1.5.2.7.4.2.2.4.3.6.5.5.5.9,1.1,1.3,1.7.3.7.5,1.3.6,2.1v8.9h-2.4v-8.2c0-.3,0-.6-.2-.9,0-.3-.2-.6-.4-.9-.3-.5-.7-1-1.2-1.3s-1-.6-1.6-.7c-.1,0-.3,0-.5,0s-.3,0-.5,0h-.2c0,0-.1,0-.2,0,0,0-.1,0-.2,0,0,0-.1,0-.2,0-.6,0-1.2.2-1.7.5-.5.3-1,.7-1.3,1.3-.3.4-.5.9-.6,1.4-.1.5-.2,1-.2,1.6v.4c0,0,0,.2,0,.2,0,0,0,.1,0,.2,0,.3,0,.6.1.9s.2.6.3.9c.1.3.3.5.5.8.2.2.4.5.6.7.2.2.5.4.7.5.3.1.5.3.8.3.2,0,.4.1.7.2.2,0,.5,0,.7,0h.1s0,0,0,0h.2c.3,0,.5,0,.8-.2.2,0,.5-.2.7-.3.3-.2.5-.4.7-.6.2-.2.4-.5.6-.7v3c-.5.4-1,.6-1.5.8-.5.2-1.1.3-1.7.3-.1,0-.2,0-.3,0h-.3c-.2,0-.5,0-.7,0-.2,0-.5,0-.7-.1-.4,0-.7-.2-1.1-.4-.3-.2-.7-.4-1-.7-.3-.2-.5-.5-.8-.7-.3-.3-.5-.5-.7-.8-.2-.3-.4-.6-.6-1-.2-.3-.3-.7-.4-1-.1-.4-.2-.8-.3-1.3,0-.4,0-.9,0-1.3s0-.8,0-1.2c0-.4.1-.8.2-1.1.1-.4.3-.8.4-1.1.2-.4.4-.7.6-1,.2-.3.5-.6.7-.8.2-.2.5-.5.8-.7.3-.2.6-.4.9-.6.3-.2.7-.3,1-.4.4-.1.8-.2,1.3-.3.4,0,.9,0,1.3,0h0Z"/>
      <path class="cls-2" d="M-106.3-148.1h2.6v14.5h-2.6v-14.5ZM-105.1-153c.3,0,.5,0,.7.2.2.1.4.3.5.5,0,0,.1.2.2.3,0,.1,0,.2.1.3,0,0,0,0,0,.1,0,0,0,0,0,.1s0,0,0,0c0,0,0,0,0,0h0v.2c0,0,0,.1,0,.2,0,0,0,0,0,.1,0,0,0,0,0,.1,0,0,0,.1,0,.2,0,.1-.2.2-.3.3,0,.1-.2.2-.3.3-.2,0-.3.1-.5.1-.2,0-.4,0-.5,0-.1,0-.3,0-.4-.1-.1,0-.3-.1-.4-.2-.1-.1-.2-.2-.3-.4,0-.1-.2-.3-.2-.4h0v-.2s0,0,0,0h0c0-.4,0-.6.2-.9,0-.2.2-.5.4-.7,0,0,.2-.1.3-.2.1,0,.2,0,.3,0,0,0,0,0,.1,0h.1Z"/>
      <path class="cls-2" d="M-92.7-148.2v2.3c-.3,0-.6,0-.9,0-.3,0-.6,0-.9.2-.3,0-.5.2-.7.3-.2.1-.5.3-.7.5-.2.2-.4.4-.5.7-.2.2-.3.5-.4.8,0,.3-.1.7-.2,1,0,.3,0,.6,0,1v7.7h-2.5v-14.4h2.4v1.8c.2-.2.3-.4.5-.6.2-.2.4-.4.6-.5.2-.1.5-.3.7-.4.3-.1.5-.2.8-.2.2,0,.4,0,.6-.1.2,0,.4,0,.6,0h.2s.1,0,.2,0c0,0,.1,0,.2,0,0,0,.1,0,.2,0h0Z"/>
      <path class="cls-2" d="M-81.4-154.6h2.6v14.4c0,.3,0,.6,0,.9,0,.3.1.6.2.9.1.3.3.5.4.7s.4.4.6.6c.4.2.8.4,1.2.6.4.1.9.2,1.3.2h3s0,2.6,0,2.6h-4.4c-.7-.2-1.3-.4-1.9-.7-.6-.3-1.2-.7-1.7-1.2-.2-.2-.4-.5-.6-.7s-.3-.5-.5-.8c-.1-.4-.2-.7-.3-1.1,0-.4-.1-.8-.2-1.2v-15.4Z"/>
      <path class="cls-2" d="M-69.1-148.1h2.6v14.5h-2.6v-14.5ZM-67.9-153c.3,0,.5,0,.7.2.2.1.4.3.5.5,0,0,.1.2.2.3,0,.1,0,.2.1.3,0,0,0,0,0,.1,0,0,0,0,0,.1s0,0,0,0c0,0,0,0,0,0h0v.2c0,0,0,.1,0,.2,0,0,0,0,0,.1,0,0,0,0,0,.1,0,0,0,.1,0,.2,0,.1-.2.2-.3.3,0,.1-.2.2-.3.3-.2,0-.3.1-.5.1-.2,0-.4,0-.5,0-.1,0-.3,0-.4-.1-.1,0-.3-.1-.4-.2-.1-.1-.2-.2-.3-.4,0-.1-.2-.3-.2-.4h0v-.2s0,0,0,0h0c0-.4,0-.6.2-.9,0-.2.2-.5.4-.7,0,0,.2-.1.3-.2.1,0,.2,0,.3,0,0,0,0,0,.1,0h.1Z"/>
      <path class="cls-2" d="M-58.1-148.2c.2,0,.3,0,.5,0h.5c.2,0,.3,0,.5,0,.2,0,.3,0,.4,0,.6.1,1.2.3,1.7.7.5.3,1,.7,1.4,1.2.4-.5,1-1,1.6-1.3.6-.3,1.2-.5,1.9-.6.4,0,.7,0,1.1,0,.3,0,.7,0,1,.2.3,0,.5.2.8.3.2.1.5.3.7.4.2.2.4.3.6.5.2.2.4.4.5.6.2.3.4.7.5,1s.2.7.3,1.1v10.2h-2.5v-9.1c0-.3,0-.5-.1-.8,0-.3-.1-.5-.2-.8-.2-.4-.5-.7-.8-.9-.3-.2-.7-.4-1.1-.5,0,0-.2,0-.2,0,0,0-.2,0-.3,0-.3,0-.6,0-.9.2-.3.1-.6.3-.8.5-.3.2-.5.5-.6.9-.2.4-.2.7-.2,1.1v9.5h-2.5v-9.4c0-.4-.1-.9-.3-1.3-.2-.4-.4-.8-.7-1-.1-.1-.3-.2-.5-.3-.2,0-.4-.1-.5-.2,0,0-.1,0-.2,0,0,0,0,0-.1,0,0,0,0,0-.1,0h-.2c-.1,0-.2,0-.3,0-.1,0-.2,0-.3,0-.4.1-.8.3-1.1.6-.3.3-.6.7-.7,1.1,0,.2-.1.4-.1.6s0,.4,0,.6h0c0,.1,0,.2,0,.2h0v9h-2.5v-9.7c0-.3,0-.5,0-.8,0-.3.1-.5.2-.8.2-.5.5-1,.9-1.4.4-.4.8-.8,1.2-1.1.3-.2.6-.3.9-.4.3-.1.6-.2.9-.2h0Z"/>
      <path class="cls-2" d="M-39.5-148.1h2.6v14.5h-2.6v-14.5ZM-38.3-153c.3,0,.5,0,.7.2.2.1.4.3.5.5,0,0,.1.2.2.3,0,.1,0,.2.1.3,0,0,0,0,0,.1,0,0,0,0,0,.1s0,0,0,0c0,0,0,0,0,0h0v.2c0,0,0,.1,0,.2,0,0,0,0,0,.1,0,0,0,0,0,.1,0,0,0,.1,0,.2,0,.1-.2.2-.3.3,0,.1-.2.2-.3.3-.2,0-.3.1-.5.1-.2,0-.4,0-.5,0-.1,0-.3,0-.4-.1-.1,0-.3-.1-.4-.2-.1-.1-.2-.2-.3-.4,0-.1-.2-.3-.2-.4h0v-.2s0,0,0,0h0c0-.4,0-.6.2-.9,0-.2.2-.5.4-.7,0,0,.2-.1.3-.2.1,0,.2,0,.3,0,0,0,0,0,.1,0h.1Z"/>
      <path class="cls-2" d="M-32.3-151.8h2.6v3.7h5.1v2.4h-5v8.2c0,0,0,.1,0,.1,0,0,0,0,0,.1,0,.2,0,.3.2.5,0,.1.2.3.3.4.2.1.3.2.6.3.2,0,.4.1.6.1h3.3s0,2.3,0,2.3h-4.1c-.3,0-.5,0-.8-.2-.3,0-.5-.2-.7-.3-.3-.1-.5-.3-.7-.5-.2-.2-.4-.4-.6-.7-.1-.2-.3-.5-.3-.7,0-.2-.2-.5-.2-.7,0-.1,0-.2,0-.4,0-.1,0-.2,0-.3,0-.1,0-.2,0-.3v-13.9Z"/>
      <path class="cls-2" d="M-16.8-148.4h.5c.2,0,.3,0,.5,0,.3,0,.6,0,1,.1.3,0,.6.1.9.2.5.1.9.3,1.3.6.4.2.8.5,1.2.8.4.4.8.8,1.1,1.3.3.5.6,1,.9,1.5l-9.1,5.4-1.2-2.1,6.7-4c-.2-.2-.4-.4-.6-.6-.2-.2-.5-.4-.7-.5-.3-.1-.6-.2-.9-.3-.3,0-.6-.1-.9-.2-.3,0-.6,0-.9,0-.3,0-.6.1-.9.2-.6.2-1.2.6-1.6,1.1-.5.5-.8,1.1-1,1.7,0,.1,0,.3-.1.5,0,.2,0,.3,0,.5,0,.1,0,.3,0,.5v.5c0,.5,0,.9.2,1.4.1.4.3.9.6,1.3.2.4.5.8.8,1.1.3.3.7.6,1.1.9.3.2.7.3,1.1.4.4,0,.7.1,1.1.1s.4,0,.6,0c.2,0,.4,0,.6-.1.3-.1.5-.2.8-.4.3-.1.5-.3.7-.5.3-.2.5-.4.7-.6.2-.2.4-.5.5-.8.1-.3.2-.6.3-.9,0-.3.1-.6.1-1l2.5.5c0,.5-.1,1-.3,1.5-.2.5-.4.9-.6,1.4-.3.4-.6.8-.9,1.2-.3.4-.7.7-1.1,1-.4.3-.9.5-1.3.7-.4.2-.9.3-1.4.4-.1,0-.2,0-.4,0-.1,0-.2,0-.4,0h-.7c-.2,0-.5,0-.7,0-.2,0-.5,0-.7,0-.5,0-.9-.2-1.4-.4-.5-.2-.9-.4-1.3-.7-.7-.6-1.3-1.4-1.8-2.3-.5-.9-.8-1.8-1.1-2.8,0-.2,0-.3,0-.5v-.8c0-.1,0-.2,0-.3,0-.2,0-.5,0-.7,0-.2,0-.5.1-.7,0-.5.2-1,.4-1.4.2-.5.4-.9.7-1.4.3-.4.6-.8,1-1.1.4-.3.8-.6,1.2-.9.4-.2.9-.4,1.4-.6.5-.1.9-.2,1.4-.2h0Z"/>
      <path class="cls-2" d="M4.7-154.6h2.6v14.1c0,.6-.1,1.2-.3,1.8-.2.6-.4,1.1-.7,1.7-.2.4-.4.8-.7,1.2-.3.4-.6.7-.9,1-.3.3-.7.5-1.1.7-.4.2-.8.4-1.2.5-.2,0-.4,0-.6.1-.2,0-.5,0-.7.1,0,0-.2,0-.3,0-.1,0-.2,0-.3,0H.2s0,0-.1,0c0,0-.1,0-.2,0-.4,0-.9,0-1.3-.1-.4,0-.8-.2-1.2-.4-.4-.2-.7-.5-1.1-.7-.3-.3-.7-.6-.9-.9-.3-.3-.6-.7-.8-1.1-.2-.4-.5-.8-.6-1.2-.2-.4-.3-.8-.4-1.3,0-.4-.2-.9-.2-1.3,0-.9,0-1.8.4-2.7.3-.9.6-1.7,1.1-2.4.6-.7,1.2-1.3,2-1.7.8-.5,1.6-.8,2.4-.9.8,0,1.6,0,2.3.2.8.2,1.5.4,2.2.8v2.6c-.3-.2-.6-.4-.9-.6-.3-.2-.7-.3-1-.4-.3-.1-.6-.2-.9-.2-.3,0-.6,0-.9,0-.3,0-.6,0-.8.1-.3,0-.5.2-.8.3-.6.2-1,.5-1.5,1-.4.4-.7,1-.9,1.6-.1.3-.2.6-.3.9,0,.3,0,.6,0,.9s0,.6,0,.9c0,.3.1.6.2.9.2.6.4,1.1.8,1.6.3.5.7.9,1.2,1.3.3.1.5.3.8.4.3,0,.6.2.9.2.1,0,.2,0,.4,0,.1,0,.2,0,.4,0s.3,0,.5,0c.2,0,.3,0,.5,0,.3,0,.6-.2.8-.3.3-.1.5-.3.7-.5.5-.3.8-.7,1.2-1.2.3-.5.5-1,.6-1.6v-15Z"/>
      <path class="cls-2" d="M-71.5-125.5l76.7,1.6-76.7,5.4c.3-1.1.4-2.3.4-3.5s-.1-2.4-.4-3.5Z"/>
      <path class="cls-2" d="M-98-118.5l-76.7-5.4,76.7-1.6c-.3,1.1-.4,2.3-.4,3.5s.1,2.3.4,3.5Z"/>
      <path class="cls-2" d="M-85.5-122c0,.5.3.8.8.8s.8-.4.8-.8-.3-.8-.8-.8-.8.4-.8.8ZM-86.2-124.5c-.2-.3-.4-.8-.5-1.3-.3-.8-.6-1.2-1.1-1.5-.5-.2-1,0-1.2,0-.3,0-.1-.2-.1-.2.2-.6,1-1.4,1.6-1.8-1.6.8-3,2.1-3.8,3.8,0,0,0,0,.1,0,0,0,0,0,0,0,.3.3.5.3.9,0,.4-.2,1.6-.7,2.2.5.3.7.8,1.1,1.1,1.3.2-.4.5-.7.9-.9ZM-84.5-124.9c0-.3.3-.8.7-1.4.5-.7.6-1.2.4-1.8-.2-.6-.6-.8-.8-1-.1-.2,0-.2,0-.2.6-.3,2.2,0,2.7.3-1-.5-2.1-.8-3.3-.8s-1.6.1-2.3.4c0,0,0,0,0,.1,0,.4.2.6.6.7.4,0,1.6.7,1.2,2-.2.8-.1,1.5,0,1.9.2,0,.3,0,.5,0s.1,0,.2,0ZM-82.5-123.8c.3-.2.8-.3,1.4-.5.8-.2,1.2-.5,1.5-1,.3-.5,0-1.1.1-1.3,0-.3.2-.1.2-.1.5.3,1.3,1.3,1.6,2-.7-1.9-2-3.5-3.7-4.4.1,0,.2.2.1.2,0,0,0,0,0,0-.3.2-.3.5-.1.9.2.4.4,1.8-.7,2.3-.7.3-1.1.7-1.3,1,.4.2.7.5.9.8ZM-82-121.7c.3,0,.8.3,1.4.7.7.5,1.2.6,1.7.4.6-.2.7-.7.9-.9.2-.2.2,0,.2,0,.2.5,0,1.7,0,2.4.3-.9.5-1.9.5-3s-.1-1.5-.3-2.3c0,0,0,0,0,0,0,0,0,0,0,0-.4,0-.6.2-.7.6-.1.4-.8,1.6-2,1.1-.7-.3-1.3-.3-1.6-.2,0,.2,0,.5,0,.8s0,.2,0,.3ZM-82.9-119.7c.2.3.4.8.5,1.5.2.9.5,1.3,1,1.5.5.3,1,0,1.2,0,.2,0,.1.2.1.2-.2.5-1,1.3-1.6,1.7,1.6-.7,2.8-2,3.6-3.6,0,0,0,0,0,0,0,0,0,0,0,0-.2-.3-.5-.3-.9-.1-.4.2-1.6.5-2.1-.7-.3-.7-.8-1.2-1.1-1.4-.2.3-.4.6-.7.9ZM-84.8-119c0,.3-.3.9-.6,1.5-.4.8-.5,1.3-.3,1.9.2.6.7.8.8,1,.2.2,0,.3,0,.3-.5.3-1.7.1-2.4,0,.8.3,1.7.5,2.6.5s1.6-.1,2.3-.4c0,0,0,0,0,0,0,0,0,0,0-.1,0-.4-.2-.6-.5-.7-.4-.1-1.5-.8-1.1-2.1.3-.8.2-1.4.1-1.8-.3,0-.5.1-.8.1h-.1ZM-93.2-122c0-5,3.8-9.1,8.5-9.1s8.5,4.1,8.5,9.1-3.8,9.1-8.5,9.1-8.5-4.1-8.5-9.1ZM-86.9-120.1c-.3.2-.7.4-1.3.5-.8.3-1.2.6-1.4,1.1-.2.6,0,1.1,0,1.3,0,.3-.2.1-.2.1-.8-.3-2.3-2.5-1.9-2.4,0,0,0,0,.1,0,.4,0,.6-.2.7-.6.1-.4.7-1.7,1.9-1.3.7.2,1.2.2,1.6.1,0-.3-.1-.5-.1-.8s0-.3,0-.5c-.3,0-.7-.3-1.2-.6-.7-.4-1.2-.5-1.8-.2-.5.2-.7.8-.9.9-.2.2-.2,0-.2,0-.3-.6-.2-2.3,0-2.9-.4,1-.7,2.1-.7,3.3,0,3.2,1.8,6,4.3,7.2,0,0,0,0,0,0,0,0,0,0,0,0,.3-.3.3-.6,0-.9-.2-.4-.6-1.7.5-2.3.7-.3,1-.8,1.3-1.2-.4-.2-.7-.5-1-.8Z"/>
      <path class="cls-1" d="M-94.6-122c0-5.8,4.4-10.5,9.9-10.5s9.9,4.7,9.9,10.5-4.4,10.5-9.9,10.5-9.9-4.7-9.9-10.5Z"/>
      <g>
        <path class="cls-3" d="M179.2,20.9s0,0,0,0h0c0-.1,0-.3,0-.4h0c0,.1.1.3.1.5h0ZM178.6,22.9c.4-.5.6-1.1.6-1.8h0c0-.5-.2-1.1-1.1-1.8-.8-.6-2-1.1-3.5-1.3-.7.9-2.8,2.1-4.7,2.9-2.2,1-4.7,1.9-5.9,2.3-2.5.9-6.5,2.1-8,2.5h0s0,0,0,0h0c1.3.4,9.1,2.5,12.2,2.8,2.1-.7,3.9-1.5,6.1-2.6,1.4-.7,3.2-1.7,4.1-3.1h0Z"/>
        <path class="cls-3" d="M112.7,14c3.4,1.1,11.3,3,17.2,3.5,8.4.8,17,.6,22,.6,4.7,0,10.6-.1,12.6-.2,2,0,5.6-.2,8.7,0,2.1.1,3.8.7,4.8,1.5.9.7,1.1,1.3,1.1,1.8,0-.8-.5-1.9-1.4-3.4-.4-.8-1.6-2.7-2.9-3.6-1.9-1.2-4-1.7-7-2-2.7-.3-8.3-.1-10.5,0-2.2,0-17.8.7-19.8.8-2.1.1-12.4.5-15,.6-2.6.1-7.3.3-10,.4h0Z"/>
        <path class="cls-3" d="M14.8,36.8c.4-.2.5-.6.5-1v-9.1c0-.4-.2-.8-.5-1h4.3c1.9,0,3.8.8,3.8,3s-1,2.1-2.1,2.3c1.6,0,3.1.9,3.1,2.7,0,2.5-2.6,3.1-4.4,3.1h-4.7ZM18.3,26.6c-.2,0-.3,0-.7,0v3.9h.4c1.3,0,2.6-.4,2.6-1.9s-1-2-2.3-2h0ZM18.5,31.6c-.3,0-.6,0-1,0v4.1c.5,0,1,.1,1.5.1,1.1,0,2.2-.5,2.2-2.2s-1.3-2.1-2.7-2.1h0ZM28.2,26.6c-.2,0-.4,0-.6,0v3.8c.2,0,.3,0,.5,0,1.2,0,2.2-.7,2.2-2s-.9-1.9-2.1-1.9h0ZM33.8,36.8c-.4,0-.9,0-1.3-.1-.8-.2-1.8-1.9-2.2-2.6-.6-1.1-1.2-2.6-2.6-2.6v4.2c0,.4.2.8.5,1h-3.3c.4-.2.5-.6.5-1v-9.1c0-.4-.2-.8-.5-1h4c1.7,0,3.9.7,3.9,2.8s-1.5,2.7-3.1,2.7c2.3,0,3.7,5.4,6.2,5.4-.7.2-1.4.3-2.1.3h0ZM36.1,36.8c.3-.1.6-.5.6-1v-9.1c0-.5-.3-.9-.6-1h3.4c-.3.1-.6.5-.6,1v9.1c0,.5.3.9.6,1h-3.4ZM43.4,36.8c.4-.2.5-.6.5-1v-8.8h-2.5c-.6,0-1.2,0-1.7.4l.8-1.6h8.1c.7,0,1.3,0,2-.1-.3.8-1.2,1.5-1.8,1.5-.6,0-1.7,0-2.6,0v8.9c0,.4.2.8.5,1h-3.4,0ZM51.1,36.8c.3-.1.6-.5.6-1v-9.1c0-.5-.3-.9-.6-1h3.4c-.3.1-.6.5-.6,1v9.1c0,.5.3.9.6,1h-3.4ZM61.1,34.3c0-2.1-5-2.6-5-6s2-2.8,3.7-2.8,1.9.1,2.6.4v2.1c-.3-.9-1.4-1.6-2.4-1.6s-1.6.4-1.6,1.3c0,2.2,5.1,2.7,5.1,5.9s-2,3.3-4.1,3.3-2.5-.2-3.4-.8c0-.4,0-.8,0-1.1,0-.5,0-.9.1-1.4.6,1.3,1.7,2.3,3.2,2.3,1.1,0,1.9-.5,1.9-1.7ZM71.8,36.8c.2-.1.5-.5.5-1v-4.1c-.6,0-1.4,0-2.4,0s-1.8,0-2.4,0v4.1c0,.5.2.9.5,1h-3.3c.2-.1.5-.5.5-1v-9.1c0-.5-.3-.9-.5-1h3.3c-.2.1-.5.5-.5,1v3.7c.6,0,1.4,0,2.4,0s1.8,0,2.4,0v-3.7c0-.5-.3-.9-.5-1h3.3c-.2.1-.5.5-.5,1v9.1c0,.5.2.9.5,1h-3.3ZM87.2,36.8c.1-.1.2-.2.2-.4s0-.2-.1-.4c0,0-.9-2.5-1-2.8-.7,0-1.4,0-2.1,0s-1.3,0-2,0c0,.2-1.1,2.7-1.1,2.7-.1.3-.2.5-.2.5,0,.2.1.2.3.3h-2.2c.3-.2.6-.5.8-.8l3.7-9.5s0,0,0-.1c0-.3-.2-.5-.4-.6h2.9l3.7,10.2c.2.4.5.7.8.9h-3.2s0,0,0,0ZM84.3,27.8l-1.7,4.3c.5,0,1,0,1.5,0s1.2,0,1.7,0l-1.6-4.3ZM91,36.8c.3-.1.6-.5.6-1v-9.1c0-.5-.3-.9-.6-1h3.4c-.3.1-.6.5-.6,1v9.1c0,.5.3.9.6,1h-3.4ZM99.6,26.6c-.2,0-.4,0-.6,0v3.8c.2,0,.3,0,.5,0,1.2,0,2.2-.7,2.2-2s-.9-1.9-2.1-1.9ZM105.4,36.8c-.4,0-.9,0-1.3-.1-.8-.2-1.8-1.9-2.2-2.6-.6-1.1-1.5-2.6-2.9-2.6v4.2c0,.4.2.8.5,1h-3.3c.4-.2.5-.6.5-1v-9.1c0-.4-.2-.8-.5-1h4c1.7,0,3.9.7,3.9,2.8s-1.6,2.7-2.8,2.7c2.4.1,3.8,5.4,6.2,5.4-.7.2-1.4.3-2.1.3h0ZM119.3,26.8l-3.4,10c-.3,0-.5,0-.7-.2-.3-.3-.9-1.7-1.1-2.2l-1.5-3.8-2.2,6.2h-1l-3.8-10c-.2-.4-.4-.8-.8-1.1h3.3c-.1.1-.2.2-.2.5s0,.3,0,.4l2.5,6.6,2.6-7.5,2.9,7.2,2.2-6.5c0-.2,0-.2,0-.4s0-.2-.2-.3h2.2c-.4.2-.7.7-.8,1.1h0ZM123.3,27.8l-1.7,4.3c.5,0,1,0,1.5,0s1.2,0,1.7,0l-1.6-4.3ZM126.2,36.8c.1-.1.2-.2.2-.4s0-.2-.1-.4c0,0-.9-2.5-1-2.8-.7,0-1.4,0-2.1,0s-1.3,0-2,0c0,.2-1.1,2.7-1.1,2.7-.1.3-.2.5-.2.5,0,.2.1.2.3.3h-2.2c.3-.2.6-.5.8-.8l3.7-9.5s0,0,0-.1c0-.3-.2-.5-.4-.6h2.9l3.7,10.2c.1.4.5.7.8.9h-3.2s0,0,0,0ZM136.2,26.8l-2.6,4.6v4.3c0,.4.1.8.5,1h-3.3c.3-.2.5-.6.5-1v-4.3l-2.3-3.7c-.2-.3-1.2-1.9-2.3-1.9.3-.1,1.3-.3,1.9-.3,1.1,0,1.6,0,2.3,1.1l2.1,3.3c.2-.3,1.9-3.2,1.9-3.2.2-.4.3-.6.3-.7s0-.3-.2-.4h2.4c-.5.2-.9.7-1.1,1.2h0ZM142.3,34.3c0-2.1-5-2.6-5-6s2-2.8,3.7-2.8,1.9.1,2.6.4v2.1c-.3-.9-1.4-1.6-2.4-1.6s-1.6.4-1.6,1.3c0,2.2,5.1,2.7,5.1,5.9s-2,3.3-4.1,3.3-2.5-.2-3.4-.8c0-.4,0-.8,0-1.1,0-.5,0-.9.1-1.4.6,1.3,1.7,2.3,3.2,2.3,1.1,0,1.9-.5,1.9-1.7h0Z"/>
      </g>
    </g>
  </g>
</svg>