<?xml version="1.0" encoding="UTF-8"?>
<svg xmlns="http://www.w3.org/2000/svg" xmlns:v="https://vecta.io/nano" version="1.1" viewBox="0 0 154 36">
  <defs>
    <style>
      .cls-1 {
        fill: none;
        stroke: #b4b7c9;
        stroke-miterlimit: 3.9;
        stroke-width: 1.6px;
      }

      .cls-2 {
        fill: #b4b7c9;
      }
    </style>
  </defs>
  <!-- Generator: Adobe Illustrator 28.7.1, SVG Export Plug-In . SVG Version: 1.2.0 Build 142)  -->
  <g>
    <g id="Layer_1">
      <g>
        <path class="cls-2" d="M22.1,3.1v1.9c0,0-.1,0-.2,0,0,0-.1,0-.2,0h-.5c-.2,0-.4,0-.7,0-.2,0-.4,0-.7,0-.3,0-.7,0-1,.2-.3.1-.6.2-1,.4-.2.1-.5.3-.7.4-.2.2-.4.4-.6.6-.2.2-.4.4-.5.7-.2.2-.3.5-.4.7-.1.3-.2.6-.3.8,0,.3-.1.6-.2.9,0,.1,0,.3,0,.5,0,.2,0,.3,0,.5s0,.3,0,.4c0,.1,0,.3,0,.5,0,.3.1.6.2.9.1.3.2.5.4.8.3.4.7.8,1.1,1.2.4.4.8.7,1.3.9.4.1.9.3,1.3.3.5,0,.9.1,1.4.1s.4,0,.6,0c.2,0,.4,0,.6,0v1.8h-2.8c-.4,0-.7-.1-1.1-.2-.4-.1-.7-.2-1-.4-.3-.1-.6-.3-.8-.5-.3-.2-.5-.4-.8-.6-.2-.2-.5-.4-.7-.7-.2-.2-.4-.5-.6-.8-.2-.4-.4-.8-.6-1.2-.2-.4-.3-.8-.4-1.3,0-.4,0-.9,0-1.3,0-.4,0-.9,0-1.3,0-.4.1-.8.3-1.1.1-.4.3-.7.4-1.1.2-.3.4-.7.6-1,.2-.3.5-.6.7-.9.2-.2.4-.5.7-.7.3-.2.5-.4.8-.5.4-.2.8-.4,1.3-.6.4-.2.9-.3,1.3-.4.3,0,.6-.1.9-.1.3,0,.6,0,.9,0s.3,0,.5,0c.2,0,.3,0,.5,0h0Z"/>
        <path class="cls-2" d="M28.7,7.5c.2,0,.5,0,.7,0,.2,0,.5.1.7.2.3.1.7.3,1,.5.3.2.6.4.9.7.3.3.5.6.7.9.2.3.4.7.5,1.1.1.4.2.7.2,1.1,0,.4,0,.8,0,1.2,0,.4-.1.7-.2,1.1-.1.4-.3.7-.5,1-.2.3-.4.6-.7.9-.3.3-.6.5-.9.7-.3.2-.6.3-1,.5-.4.1-.7.2-1.1.2,0,0-.1,0-.2,0,0,0-.1,0-.2,0,0,0-.1,0-.2,0h-.2c-.2,0-.5,0-.7,0-.2,0-.5,0-.7-.1-.3-.1-.7-.3-1-.5-.3-.2-.6-.4-.9-.7-.3-.3-.5-.6-.7-.9-.2-.3-.4-.7-.5-1,0-.3-.2-.6-.2-.9,0-.3,0-.6,0-.9h0v-.3s0,0,0-.1c0,0,0,0,0-.1,0-.4,0-.8.2-1.1.1-.4.3-.7.4-1.1.2-.3.4-.6.6-.9.2-.3.5-.5.8-.8.3-.2.6-.4,1-.5.3-.1.7-.2,1.1-.3.2,0,.4,0,.5,0,.2,0,.4,0,.5,0h0ZM28.9,9.3c0,0-.1,0-.2,0,0,0,0,0-.1,0,0,0-.1,0-.2,0h-.2c0,0-.1,0-.2,0,0,0-.1,0-.2,0,0,0-.1,0-.2,0,0,0-.1,0-.2,0-.3,0-.5.2-.8.3-.2.2-.4.3-.6.6-.2.2-.3.4-.4.6-.1.2-.2.4-.3.7,0,.2,0,.5-.1.8,0,.3,0,.5,0,.8,0,.2,0,.5.1.7,0,.2.2.5.3.7.1.2.2.4.4.6.2.2.3.3.5.5.2.1.4.3.6.4.2,0,.5.2.7.2,0,0,.2,0,.2,0,0,0,.2,0,.2,0,.2,0,.3,0,.5,0,.2,0,.3,0,.5-.1.2,0,.5-.2.6-.3.2-.1.4-.3.6-.5.2-.2.3-.3.5-.6.1-.2.2-.4.3-.7,0-.2.1-.3.1-.5,0-.2,0-.4,0-.5v-.2c0,0,0-.2,0-.2,0-.3,0-.5,0-.8,0-.2-.1-.5-.2-.7-.1-.2-.2-.5-.4-.7-.2-.2-.3-.4-.5-.5-.2-.2-.4-.3-.6-.4-.2,0-.5-.2-.7-.2h0Z"/>
        <path class="cls-2" d="M38,7.6c.1,0,.2,0,.3,0h.3c.1,0,.2,0,.3,0,.1,0,.2,0,.3,0,.4,0,.8.2,1.2.5.4.2.7.5,1,.8.3-.4.7-.7,1.1-.9.4-.2.9-.3,1.3-.4.2,0,.5,0,.7,0,.2,0,.5,0,.7.1.2,0,.4.1.5.2.2,0,.3.2.5.3.2.1.3.2.4.4.1.1.3.3.4.4.1.2.3.5.3.7,0,.2.2.5.2.8v7.1h-1.7v-6.3c0-.2,0-.4,0-.6,0-.2,0-.4-.2-.6-.1-.2-.3-.5-.5-.6-.2-.2-.5-.3-.8-.3,0,0-.1,0-.2,0,0,0-.1,0-.2,0-.2,0-.4,0-.6.1-.2,0-.4.2-.5.4-.2.2-.3.4-.4.6-.1.2-.2.5-.2.8v6.6h-1.8v-6.5c0-.3,0-.6-.2-.9-.1-.3-.3-.5-.5-.7,0,0-.2-.2-.3-.2s-.2,0-.4-.1c0,0,0,0-.1,0,0,0,0,0,0,0,0,0,0,0,0,0h-.1c0,0-.2,0-.2,0,0,0-.1,0-.2,0-.3,0-.5.2-.8.4-.2.2-.4.5-.5.8,0,.1,0,.3,0,.4,0,.1,0,.3,0,.4h0c0,0,0,.1,0,.1h0v6.2h-1.8v-6.7c0-.2,0-.4,0-.5,0-.2,0-.4.1-.5.2-.4.4-.7.6-1,.2-.3.5-.5.8-.8.2-.1.4-.2.6-.3.2,0,.4-.1.6-.2h0Z"/>
        <path class="cls-2" d="M54.7,7.6c0,0,.1,0,.2,0h.2c.3,0,.7,0,1,.2.3.1.7.2,1,.4.2,0,.3.2.5.3.2.1.3.2.4.4.4.3.6.7.9,1.2.2.5.4.9.4,1.4v6.1h-1.7v-5.7c0-.2,0-.4-.1-.6,0-.2-.1-.4-.3-.6-.2-.4-.5-.7-.8-.9s-.7-.4-1.1-.5c0,0-.2,0-.3,0s-.2,0-.3,0h-.1s0,0-.1,0c0,0,0,0-.1,0,0,0,0,0-.1,0-.4,0-.8.1-1.2.3-.4.2-.7.5-.9.9-.2.3-.3.6-.4,1,0,.3-.1.7-.1,1.1h0v.3c0,0,0,.1,0,.2,0,0,0,0,0,.1,0,.2,0,.4.1.6s.1.4.2.6c0,.2.2.4.3.5.1.2.3.3.4.5.2.1.3.3.5.4.2.1.4.2.6.2.2,0,.3.1.5.1.2,0,.3,0,.5,0h0s0,0,0,0h.1c.2,0,.4,0,.5-.1.2,0,.3-.1.5-.2.2-.1.3-.2.5-.4.2-.2.3-.3.4-.5v2.1c-.3.2-.7.4-1,.6-.4.1-.8.2-1.2.2,0,0-.2,0-.2,0h-.2c-.2,0-.3,0-.5,0-.2,0-.3,0-.5,0-.3,0-.5-.2-.8-.3-.2-.1-.5-.3-.7-.5-.2-.2-.4-.3-.6-.5-.2-.2-.3-.4-.5-.6-.2-.2-.3-.4-.4-.7-.1-.2-.2-.5-.3-.7,0-.3-.1-.6-.2-.9,0-.3,0-.6,0-.9s0-.5,0-.8c0-.3,0-.5.2-.8,0-.3.2-.5.3-.8.1-.3.3-.5.4-.7.2-.2.3-.4.5-.6.2-.2.4-.3.5-.5.2-.2.4-.3.6-.4.2-.1.5-.2.7-.3.3,0,.6-.2.9-.2.3,0,.6,0,.9,0h0Z"/>
        <path class="cls-2" d="M62.2,7.6h1.8v10h-1.8V7.6ZM63,4.2c.2,0,.3,0,.5.1.2,0,.3.2.4.3,0,0,0,.1.1.2,0,0,0,.1,0,.2,0,0,0,0,0,0,0,0,0,0,0,0s0,0,0,0c0,0,0,0,0,0h0c0,.2,0,.2,0,.2,0,0,0,0,0,0,0,0,0,0,0,0,0,0,0,0,0,.1,0,0-.1.2-.2.2,0,0-.1.1-.2.2-.1,0-.2,0-.4,0-.1,0-.2,0-.4,0,0,0-.2,0-.3,0,0,0-.2,0-.3-.2,0,0-.2-.2-.2-.2,0,0-.1-.2-.2-.3h0c0-.1,0-.1,0-.2h0c0-.3,0-.4.1-.6,0-.2.2-.3.3-.5,0,0,.1,0,.2-.1,0,0,.1,0,.2,0,0,0,0,0,0,0h0Z"/>
        <path class="cls-2" d="M71.6,7.6v1.6c-.2,0-.4,0-.6,0-.2,0-.4,0-.6.1-.2,0-.3.1-.5.2-.2,0-.3.2-.5.3-.1.1-.3.3-.4.5-.1.2-.2.3-.3.5,0,.2,0,.5-.1.7,0,.2,0,.4,0,.7v5.4h-1.8V7.6h1.7v1.2c.1-.1.2-.3.4-.4.1-.1.3-.3.4-.4.2-.1.3-.2.5-.3.2,0,.4-.1.5-.2.1,0,.3,0,.4,0,.1,0,.3,0,.4,0h.1s0,0,.1,0c0,0,0,0,.1,0,0,0,0,0,.1,0h0Z"/>
        <path class="cls-2" d="M79.4,3.1h1.8v9.9c0,.2,0,.4,0,.7,0,.2,0,.4.2.6,0,.2.2.4.3.5s.2.3.4.4c.3.2.6.3.9.4.3,0,.6.1.9.1h2.1s0,1.8,0,1.8h-3c-.5-.1-.9-.3-1.3-.5-.4-.2-.8-.5-1.1-.8-.1-.2-.3-.3-.4-.5s-.2-.4-.4-.5c0-.2-.2-.5-.2-.8,0-.3,0-.5-.1-.8V3.1Z"/>
        <path class="cls-2" d="M87.9,7.6h1.8v10h-1.8V7.6ZM88.8,4.2c.2,0,.3,0,.5.1.2,0,.3.2.4.3,0,0,0,.1.1.2,0,0,0,.1,0,.2,0,0,0,0,0,0,0,0,0,0,0,0s0,0,0,0c0,0,0,0,0,0h0c0,.2,0,.2,0,.2,0,0,0,0,0,0,0,0,0,0,0,0,0,0,0,0,0,.1,0,0-.1.2-.2.2,0,0-.1.1-.2.2-.1,0-.2,0-.4,0-.1,0-.2,0-.4,0,0,0-.2,0-.3,0,0,0-.2,0-.3-.2,0,0-.2-.2-.2-.2,0,0-.1-.2-.2-.3h0c0-.1,0-.1,0-.2h0c0-.3,0-.4.1-.6,0-.2.2-.3.3-.5,0,0,.1,0,.2-.1,0,0,.1,0,.2,0,0,0,0,0,0,0h0Z"/>
        <path class="cls-2" d="M95.5,7.6c.1,0,.2,0,.3,0h.3c.1,0,.2,0,.3,0,.1,0,.2,0,.3,0,.4,0,.8.2,1.2.5.4.2.7.5,1,.8.3-.4.7-.7,1.1-.9.4-.2.9-.3,1.3-.4.2,0,.5,0,.7,0,.2,0,.5,0,.7.1.2,0,.4.1.5.2.2,0,.3.2.5.3.2.1.3.2.4.4.1.1.3.3.4.4.1.2.3.5.3.7s.2.5.2.8v7.1h-1.7v-6.3c0-.2,0-.4,0-.6,0-.2,0-.4-.2-.6-.1-.2-.3-.5-.5-.6-.2-.2-.5-.3-.8-.3,0,0-.1,0-.2,0,0,0-.1,0-.2,0-.2,0-.4,0-.6.1-.2,0-.4.2-.5.4-.2.2-.3.4-.4.6-.1.2-.2.5-.2.8v6.6h-1.8v-6.5c0-.3,0-.6-.2-.9-.1-.3-.3-.5-.5-.7,0,0-.2-.2-.3-.2-.1,0-.2,0-.4-.1,0,0,0,0-.1,0,0,0,0,0,0,0,0,0,0,0,0,0h-.1c0,0-.2,0-.2,0,0,0-.1,0-.2,0-.3,0-.5.2-.8.4-.2.2-.4.5-.5.8,0,.1,0,.3,0,.4s0,.3,0,.4h0c0,0,0,.1,0,.1h0v6.2h-1.8v-6.7c0-.2,0-.4,0-.5,0-.2,0-.4.1-.5.2-.4.4-.7.6-1,.2-.3.5-.5.8-.8.2-.1.4-.2.6-.3.2,0,.4-.1.6-.2h0Z"/>
        <path class="cls-2" d="M108.4,7.6h1.8v10h-1.8V7.6ZM109.3,4.2c.2,0,.3,0,.5.1.2,0,.3.2.4.3,0,0,0,.1.1.2,0,0,0,.1,0,.2,0,0,0,0,0,0,0,0,0,0,0,0s0,0,0,0c0,0,0,0,0,0h0c0,.2,0,.2,0,.2,0,0,0,0,0,0,0,0,0,0,0,0,0,0,0,0,0,.1,0,0-.1.2-.2.2,0,0-.1.1-.2.2-.1,0-.2,0-.4,0-.1,0-.2,0-.4,0,0,0-.2,0-.3,0,0,0-.2,0-.3-.2,0,0-.2-.2-.2-.2,0,0-.1-.2-.2-.3h0c0-.1,0-.1,0-.2h0c0-.3,0-.4.1-.6,0-.2.2-.3.3-.5,0,0,.1,0,.2-.1,0,0,.1,0,.2,0,0,0,0,0,0,0h0Z"/>
        <path class="cls-2" d="M113.4,5h1.8v2.6h3.5v1.7h-3.5v5.7s0,0,0,0c0,0,0,0,0,0,0,.1,0,.2.1.3,0,.1.1.2.2.3.1,0,.2.2.4.2.1,0,.3,0,.4,0h2.3s0,1.6,0,1.6h-2.9c-.2,0-.4,0-.5-.1-.2,0-.3-.1-.5-.2-.2-.1-.3-.2-.5-.4-.2-.1-.3-.3-.4-.5,0-.2-.2-.3-.2-.5,0-.2-.1-.3-.1-.5,0,0,0-.2,0-.2,0,0,0-.2,0-.2,0,0,0-.1,0-.2V5Z"/>
        <path class="cls-2" d="M124.1,7.4h.3c.1,0,.2,0,.3,0,.2,0,.4,0,.7,0,.2,0,.4,0,.7.2.3.1.6.2.9.4.3.2.6.4.8.6.3.3.5.6.8.9.2.3.4.7.6,1l-6.3,3.7-.8-1.5,4.6-2.8c-.1-.1-.3-.3-.4-.4-.1-.1-.3-.2-.5-.3-.2,0-.4-.2-.6-.2-.2,0-.4,0-.6-.1-.2,0-.4,0-.6,0-.2,0-.4,0-.6.2-.4.1-.8.4-1.1.7-.3.3-.5.7-.7,1.2,0,.1,0,.2,0,.3,0,.1,0,.2,0,.3,0,.1,0,.2,0,.3v.3c0,.3,0,.6.2,1,0,.3.2.6.4.9.2.3.3.5.6.8.2.2.5.4.7.6.2.1.5.2.7.3.3,0,.5,0,.8,0s.3,0,.4,0c.1,0,.3,0,.4,0,.2,0,.4-.2.6-.3.2-.1.4-.2.5-.3.2-.1.3-.3.5-.4.1-.2.3-.3.4-.5,0-.2.1-.4.2-.7,0-.2,0-.4,0-.7l1.7.4c0,.4,0,.7-.2,1.1-.1.3-.3.6-.4.9-.2.3-.4.6-.6.8-.2.3-.5.5-.8.7-.3.2-.6.4-.9.5-.3.1-.6.2-1,.3,0,0-.2,0-.2,0,0,0-.2,0-.2,0h-.5c-.2,0-.3,0-.5,0-.2,0-.3,0-.5,0-.3,0-.7-.1-1-.2-.3-.1-.6-.3-.9-.5-.5-.4-.9-1-1.3-1.6-.3-.6-.6-1.2-.7-1.9,0-.1,0-.2,0-.3v-.6c0,0,0-.2,0-.2,0-.2,0-.3,0-.5,0-.2,0-.3,0-.5,0-.3.2-.7.3-1,.1-.3.3-.6.5-.9.2-.3.4-.5.7-.8.3-.2.5-.4.8-.6.3-.2.6-.3.9-.4.3,0,.7-.1,1-.2h0Z"/>
        <path class="cls-2" d="M139,3.1h1.8v9.7c0,.4,0,.8-.2,1.2-.1.4-.3.8-.5,1.2-.1.3-.3.6-.5.8-.2.3-.4.5-.6.7-.2.2-.5.4-.8.5-.3.1-.5.3-.8.4-.1,0-.3,0-.4,0-.2,0-.3,0-.5,0,0,0-.1,0-.2,0,0,0-.2,0-.2,0h-.2s0,0,0,0c0,0,0,0-.1,0-.3,0-.6,0-.9,0-.3,0-.6-.1-.9-.3-.3-.1-.5-.3-.8-.5-.2-.2-.5-.4-.7-.6-.2-.2-.4-.5-.6-.7-.2-.3-.3-.5-.4-.8-.1-.3-.2-.6-.3-.9,0-.3-.1-.6-.1-.9,0-.6,0-1.2.2-1.8.2-.6.4-1.2.8-1.7.4-.5.9-.9,1.4-1.2.5-.3,1.1-.5,1.7-.6.5,0,1.1,0,1.6.1.5.1,1,.3,1.5.5v1.8c-.2-.1-.4-.3-.7-.4-.2-.1-.5-.2-.7-.3-.2,0-.4-.1-.6-.1-.2,0-.4,0-.6,0-.2,0-.4,0-.6,0-.2,0-.4.1-.6.2-.4.1-.7.4-1,.7-.3.3-.5.7-.7,1.1,0,.2-.1.4-.2.6,0,.2,0,.4,0,.6s0,.4,0,.6c0,.2,0,.4.2.6.1.4.3.7.5,1.1.2.3.5.6.8.9.2.1.4.2.5.2.2,0,.4.1.6.1,0,0,.2,0,.2,0,0,0,.2,0,.2,0s.2,0,.3,0c.1,0,.2,0,.3,0,.2,0,.4-.1.6-.2.2,0,.4-.2.5-.3.3-.2.6-.5.8-.8.2-.3.4-.7.4-1.1V3.1Z"/>
        <path class="cls-2" d="M86.3,23.3l53.1,1.1-53.1,3.7c.2-.8.3-1.6.3-2.4s0-1.6-.3-2.4Z"/>
        <path class="cls-2" d="M68,28l-53.1-3.7,53.1-1.1c-.2.8-.3,1.6-.3,2.4s0,1.6.3,2.4Z"/>
        <path class="cls-2" d="M76.6,25.7c0,.3.2.6.5.6s.5-.3.5-.6-.2-.6-.5-.6-.5.3-.5.6ZM76.1,23.9c-.1-.2-.2-.5-.4-.9-.2-.6-.4-.9-.8-1-.4-.2-.7,0-.9,0-.2,0,0-.2,0-.2.1-.4.7-.9,1.1-1.3-1.1.5-2.1,1.5-2.6,2.7,0,0,0,0,0,0,0,0,0,0,0,0,.2.2.4.2.6,0,.3-.2,1.1-.5,1.5.3.2.5.6.8.8.9.2-.3.4-.5.6-.6ZM77.3,23.6c0-.2.2-.6.5-1,.3-.5.4-.9.3-1.3-.1-.4-.4-.6-.5-.7,0-.2,0-.2,0-.2.4-.2,1.5,0,1.9.2-.7-.4-1.5-.6-2.3-.6s-1.1,0-1.6.3c0,0,0,0,0,0,0,.3.1.4.4.5.3,0,1.1.5.9,1.4-.2.6,0,1.1,0,1.3.1,0,.2,0,.3,0s0,0,.1,0ZM78.7,24.4c.2-.1.5-.2,1-.3.6-.1.8-.3,1-.7.2-.4,0-.7,0-.9,0-.2.2,0,.2,0,.4.2.9.9,1.1,1.4-.5-1.3-1.4-2.4-2.5-3,0,0,.1.1,0,.1,0,0,0,0,0,0-.2.2-.2.4,0,.6.1.3.3,1.2-.5,1.6-.5.2-.7.5-.9.7.3.1.5.3.6.6ZM79.1,25.8c.2,0,.5.2.9.5.5.3.8.4,1.2.3.4-.1.5-.5.7-.6.1-.1.2,0,.2,0,.1.4,0,1.1,0,1.7.2-.6.4-1.3.4-2.1s0-1.1-.2-1.6c0,0,0,0,0,0,0,0,0,0,0,0-.2,0-.4.1-.5.4,0,.3-.6,1.1-1.4.8-.5-.2-.9-.2-1.1-.2,0,.2,0,.4,0,.5s0,.1,0,.2ZM78.4,27.2c.1.2.2.6.4,1,.1.6.3.9.7,1.1.4.2.7,0,.9,0,.2,0,0,.2,0,.2-.1.4-.7.9-1.1,1.2,1.1-.5,2-1.4,2.5-2.5,0,0,0,0,0,0,0,0,0,0,0,0-.2-.2-.4-.2-.6,0-.3.1-1.1.4-1.5-.5-.2-.5-.5-.8-.7-1-.1.2-.3.4-.5.6ZM77.1,27.7c0,.2-.2.6-.4,1-.3.5-.3.9-.2,1.3.1.4.5.5.6.7.1.1,0,.2,0,.2-.4.2-1.2,0-1.7,0,.6.2,1.2.4,1.8.4s1.1,0,1.6-.3c0,0,0,0,0,0,0,0,0,0,0,0,0-.3-.1-.4-.4-.5-.3,0-1.1-.6-.8-1.4.2-.5.1-1,0-1.2-.2,0-.4,0-.6,0h0ZM71.2,25.7c0-3.5,2.6-6.3,5.9-6.3s5.9,2.8,5.9,6.3-2.6,6.3-5.9,6.3-5.9-2.8-5.9-6.3ZM75.7,26.9c-.2.1-.5.2-.9.4-.6.2-.8.4-1,.8-.2.4,0,.7,0,.9,0,.2-.1,0-.1,0-.6-.2-1.6-1.7-1.3-1.7,0,0,0,0,0,0,.2,0,.4-.1.5-.4,0-.3.5-1.1,1.3-.9.5.2.9.1,1.1,0,0-.2,0-.4,0-.6s0-.2,0-.3c-.2,0-.5-.2-.9-.4-.5-.3-.8-.3-1.2-.2-.4.2-.5.5-.6.6-.1.1-.2,0-.2,0-.2-.4-.1-1.6,0-2-.3.7-.5,1.5-.5,2.3,0,2.2,1.2,4.1,3,5,0,0,0,0,0,0,0,0,0,0,0,0,.2-.2.2-.4,0-.6-.1-.3-.4-1.2.4-1.6.5-.2.7-.6.9-.8-.3-.1-.5-.3-.7-.6Z"/>
        <path class="cls-1" d="M70.3,25.7c0-4,3.1-7.3,6.9-7.3s6.9,3.3,6.9,7.3-3.1,7.3-6.9,7.3-6.9-3.3-6.9-7.3Z"/>
      </g>
    </g>
  </g>
</svg>