<?xml version="1.0" encoding="UTF-8"?>
<svg xmlns="http://www.w3.org/2000/svg" xmlns:v="https://vecta.io/nano" version="1.1" viewBox="0 0 154 36">
  <defs>
    <style>
      .cls-1 {
        fill: #b4b7c9;
        fill-rule: evenodd;
      }
    </style>
  </defs>
  <!-- Generator: Adobe Illustrator 28.7.1, SVG Export Plug-In . SVG Version: 1.2.0 Build 142)  -->
  <g>
    <g id="Layer_1">
      <path class="cls-1" d="M103.6,14.6l-1.4,3.8h2.9l-1.5-3.8h0ZM101.8,19.4l-.5,1.2c-.2.4-.2.8-.2,1,0,.3.4.8,1.1.9v.7h-3.6v-.7c1-.2,1.2-.4,1.8-1.8l2.8-7.1-.4-.8h2.8l3.2,8.3c.4,1.1.8,1.5,1.4,1.5v.7h-5.2v-.7c.7,0,1.1-.3,1.1-.7s-.2-.7-.2-.7l-.7-1.7h-3.6ZM90.2,20.8c0,1.1.5,1.7,1.5,1.7,1.5,0,2.4-.8,2.4-2.1s-1-2.3-2.4-2.3h-1.5v2.6h0ZM91.7,17.5c.8,0,1.1,0,1.5-.4.4-.4.6-.8.6-1.4s-.3-1.3-.8-1.8c-.4-.3-.7-.4-1.5-.4h-1.3v4h1.5ZM92.8,12.8c2.4,0,3.9.9,3.9,2.5s-.4,1.5-1.2,1.9c-.5.3-.8.4-1.6.5,2,.4,3.2,1.3,3.2,2.6s-.6,1.8-1.5,2.3c-.8.4-1.5.5-3.2.5h-6.2v-.7c1.1,0,1.3-.4,1.3-1.6v-5.7c0-1.3-.3-1.7-1.2-1.7v-.7c-.1,0,6.6,0,6.6,0h0ZM76.4,20.7c0,1.3.4,1.8,1.7,1.8s1.2-.1,1.6-.3c1.2-.5,1.9-2,1.9-4s0-1.5-.3-2.2c-.2-.6-.5-1.1-.9-1.6-.7-.7-1.4-1-3-1h-.9v7.2h0ZM78.6,12.8c1.1,0,1.6,0,2.3.3.4.1.9.3,1.2.5,1.4.9,2.3,2.5,2.3,4.3s-1.6,4.5-4,5.1c-.7.2-1.3.2-2.8.2h-5.4v-.7c1.1,0,1.4-.4,1.4-1.6v-5.7c0-1.3-.3-1.7-1.2-1.7v-.7c-.1,0,6.2,0,6.2,0h0ZM122.1,15.6v6.1s0,.4.2,1.5h-.7l-7.5-7.9v4.5c0,1.2,0,1.9.4,2.3.3.3.7.5,1.2.5v.7c.1,0-4,0-4,0v-.7c.9,0,1.3-.3,1.5-1,0-.3,0-.6,0-1.2v-5.9l-.2-.2c-.5-.5-1-.7-1.5-.8v-.7h3.6s4.9,5.3,5.5,5.7c.5.5.6.6.6.6v-4.1c0-.6-.2-.9-.3-1-.3-.3-.6-.4-1.3-.5v-.7h3.9v.7c-.7,0-.9.2-1.2.5,0,0-.2.4-.2,1v.6h0ZM130,18.4v2.4c0,1.3.3,1.6,1.2,1.6v.7c.1,0-5.3,0-5.3,0v-.7h.2c.9,0,1.2-.3,1.2-1.6v-5.7c0-1.3-.3-1.7-1.2-1.7h-.2v-.7h5.4v.7h-.1c-1,0-1.2.4-1.2,1.7v2.4l2.3-1.8c.8-.6,1.3-1.3,1.3-1.7s-.3-.6-.8-.6v-.7c0,0,4,0,4,0v.7c-1,.2-1.1.3-2.2,1.3l-2.5,2.1,3.8,4.3c.9,1.1,1.4,1.2,1.8,1.3v.7h-2c-1.5,0-2.7-1.4-2.7-1.4l-2.9-3.4h0ZM69.3,15h-1c-.7-.8-1-1.1-1.5-1.3-.4-.2-.7-.2-1.3-.2h-2.1v3.9h1.4c1.2,0,1.7-.1,2-.5.2-.3.3-.4.4-.8h1v3.4h-1c-.1-.6-.5-1.1-.9-1.2-.3-.1-.7-.2-1.5-.2h-1.5v2.8c0,1.2.4,1.6,1.8,1.6s1.6,0,2.2-.4c.6-.3,1-.7,1.5-1.3h1.2c0-.1-.4,2.5-.4,2.5h-10.3v-.7h.2c.9,0,1.2-.4,1.2-1.6v-5.7c0-1.3-.3-1.7-1.2-1.7h-.2v-.7h10.1v2.2h0ZM55.3,15.6v6.1s0,.4.2,1.5h-.7l-7.5-7.9v4.5c0,1.2,0,1.9.4,2.3.3.3.7.5,1.2.5v.7c.1,0-4,0-4,0v-.7c.9,0,1.3-.3,1.5-1,0-.3.1-.6.1-1.2v-5.9l-.2-.2c-.5-.5-1-.7-1.5-.8v-.7h3.6s4.9,5.3,5.4,5.7c.5.5.6.6.6.6v-4.1c0-.6-.2-.9-.3-1-.3-.3-.6-.4-1.3-.5v-.7h3.9v.7c-.7,0-.9.2-1.2.5,0,0-.2.4-.2,1v.6h0ZM20.8,22.8v-9.6l3.6-2.4,3.6,2.4,3.6-2.4,3.6,2.4v9.6l-3.6,2.4-3.6-2.4-3.6,2.4-3.6-2.4h0ZM24.4,19.5l7.2,4.8,2.9-2-12.9-8.6v8.7l2.8,1.9v-4.8h0ZM31.6,15.6v-3.9l-2.9,2,2.9,2ZM38.3,18c0-5.7-4.6-10.3-10.3-10.3s-10.3,4.6-10.3,10.3,4.6,10.3,10.3,10.3,10.3-4.6,10.3-10.3ZM39.5,18c0,6.4-5.2,11.6-11.6,11.6s-11.5-5.2-11.5-11.6,5.2-11.5,11.5-11.5,11.6,5.2,11.6,11.5Z"/>
    </g>
  </g>
</svg>